<mxfile host="Electron" modified="2023-10-02T20:15:57.568Z" agent="Mozilla/5.0 (X11; Linux x86_64) AppleWebKit/537.36 (KHTML, like Gecko) draw.io/22.0.0 Chrome/114.0.5735.289 Electron/25.8.3 Safari/537.36" etag="77h2Vxz4mGN37upbz92g" version="22.0.0" type="device">
  <diagram name="Page-1" id="2cc2dc42-3aac-f2a9-1cec-7a8b7cbee084">
    <mxGraphModel dx="1760" dy="1102" grid="1" gridSize="10" guides="1" tooltips="1" connect="1" arrows="1" fold="1" page="1" pageScale="1" pageWidth="1100" pageHeight="850" background="none" math="0" shadow="0">
      <root>
        <mxCell id="0" />
        <mxCell id="1" parent="0" />
        <mxCell id="fnTpk-0xQx0vxIF9Zt7p-1" value="&lt;h1 style=&quot;font-size: 48px;&quot;&gt;Title&lt;/h1&gt;&lt;hr&gt;&lt;p&gt;&lt;br&gt;&lt;/p&gt;&lt;div id=&quot;Content&quot;&gt;&lt;div class=&quot;boxed&quot;&gt;&lt;div style=&quot;&quot; id=&quot;lipsum&quot;&gt;&lt;p&gt;Lorem ipsum dolor sit amet, consectetur adipiscing elit. Integer &lt;br&gt;convallis feugiat ligula nec placerat. Duis non odio non sapien &lt;br&gt;porttitor molestie ut et justo. Morbi volutpat tortor in mi porta &lt;br&gt;luctus. Ut non urna sit amet velit malesuada egestas. Etiam neque lacus,&lt;br&gt; dapibus et lacinia iaculis, consectetur varius ante. In lacinia &lt;br&gt;convallis nulla, a condimentum ipsum vulputate ut. Pellentesque aliquam &lt;br&gt;egestas fermentum. Proin sit amet vehicula neque. Quisque nec nisl &lt;br&gt;laoreet, venenatis nisl ac, tempor sapien. Vivamus tincidunt justo &lt;br&gt;bibendum, tristique turpis eget, imperdiet felis. Phasellus sit amet &lt;br&gt;lectus quam. Maecenas finibus libero a commodo varius. Etiam semper, &lt;br&gt;enim eu sollicitudin ultricies, velit diam aliquam magna, in tincidunt &lt;br&gt;risus velit sit amet tortor.&amp;nbsp;&lt;/p&gt;&lt;/div&gt;&lt;/div&gt;&lt;/div&gt;" style="text;html=1;strokeColor=none;fillColor=none;spacing=5;spacingTop=-20;whiteSpace=wrap;overflow=hidden;rounded=0;" parent="1" vertex="1">
          <mxGeometry x="40" y="20" width="800" height="340" as="geometry" />
        </mxCell>
        <mxCell id="fnTpk-0xQx0vxIF9Zt7p-2" value="&lt;h1 style=&quot;font-size: 28px;&quot;&gt;&lt;font style=&quot;font-size: 28px;&quot;&gt;Section 1&lt;/font&gt;&amp;nbsp;&lt;/h1&gt;&lt;p style=&quot;font-size: 12px;&quot;&gt;&lt;font style=&quot;font-size: 12px;&quot;&gt;Aenean tristique dolor sed diam porttitor, in posuere velit gravida. &lt;br&gt;Nulla tempor commodo tellus. Nam quis diam aliquam, molestie erat ac, &lt;br&gt;auctor tortor. Praesent aliquam, ipsum nec vestibulum facilisis, est &lt;br&gt;tortor faucibus arcu, at facilisis purus mauris quis magna. Duis &lt;br&gt;consequat cursus erat, quis feugiat est lacinia non. Vestibulum &lt;br&gt;fringilla dui dui, vitae maximus turpis mattis vel. Fusce malesuada nisi&lt;br&gt; diam, a imperdiet nisi gravida at. Lorem ipsum dolor sit amet, &lt;br&gt;consectetur adipiscing elit. In vel metus porttitor, facilisis velit a, &lt;br&gt;consequat nulla. Phasellus facilisis purus sed dolor aliquet, nec &lt;br&gt;fermentum sem viverra.&lt;br&gt;&lt;/font&gt;&lt;/p&gt;&lt;p style=&quot;font-size: 12px;&quot;&gt;&lt;font style=&quot;font-size: 12px;&quot;&gt;&lt;br&gt;&lt;/font&gt;&lt;/p&gt;&lt;p style=&quot;font-size: 12px;&quot;&gt;&lt;font style=&quot;font-size: 12px;&quot;&gt;Quisque ac rutrum ex. Aenean sodales, tellus ac venenatis molestie, nisi&lt;br&gt; urna commodo urna, et semper nibh dolor et odio. Sed at ante eros. &lt;br&gt;Vivamus sodales cursus pharetra. Pellentesque ornare justo quis &lt;br&gt;efficitur sollicitudin. Morbi at lacus pretium, aliquam elit non, &lt;br&gt;consequat enim. Vivamus eget enim ac velit tincidunt porttitor vitae eu &lt;br&gt;libero. Donec nec felis lorem. Sed dui nunc, pellentesque in ligula &lt;br&gt;vitae, posuere lacinia est. Quisque venenatis purus ac nunc suscipit, in&lt;br&gt; tempor quam accumsan. Proin neque eros, bibendum sit amet lacus sed, &lt;br&gt;lobortis lacinia dui. Cras lobortis, ligula ut sodales dapibus, massa &lt;br&gt;dui elementum sem, vel hendrerit tellus quam eu est.&amp;nbsp;&lt;/font&gt;&lt;/p&gt;" style="text;html=1;strokeColor=none;fillColor=none;spacing=5;spacingTop=-20;whiteSpace=wrap;overflow=hidden;rounded=0;fontSize=24;" parent="1" vertex="1">
          <mxGeometry x="40" y="410" width="520" height="390" as="geometry" />
        </mxCell>
        <mxCell id="fnTpk-0xQx0vxIF9Zt7p-3" value="&lt;h1 style=&quot;font-size: 28px;&quot;&gt;&lt;font style=&quot;font-size: 28px;&quot;&gt;Section 2&lt;/font&gt;&amp;nbsp;&lt;/h1&gt;&lt;p style=&quot;font-size: 12px;&quot;&gt;&lt;font style=&quot;font-size: 12px;&quot;&gt;Aenean tristique dolor sed diam porttitor, in posuere velit gravida. &lt;br&gt;Nulla tempor commodo tellus. Nam quis diam aliquam, molestie erat ac, &lt;br&gt;auctor tortor. Praesent aliquam, ipsum nec vestibulum facilisis, est &lt;br&gt;tortor faucibus arcu, at facilisis purus mauris quis magna. Duis &lt;br&gt;consequat cursus erat, quis feugiat est lacinia non. Vestibulum &lt;br&gt;fringilla dui dui, vitae maximus turpis mattis vel. Fusce malesuada nisi&lt;br&gt; diam, a imperdiet nisi gravida at. Lorem ipsum dolor sit amet, &lt;br&gt;consectetur adipiscing elit. In vel metus porttitor, facilisis velit a, &lt;br&gt;consequat nulla. Phasellus facilisis purus sed dolor aliquet, nec &lt;br&gt;fermentum sem viverra.&lt;br&gt;&lt;/font&gt;&lt;/p&gt;&lt;p style=&quot;font-size: 12px;&quot;&gt;&lt;font style=&quot;font-size: 12px;&quot;&gt;&lt;br&gt;&lt;/font&gt;&lt;/p&gt;&lt;p style=&quot;font-size: 12px;&quot;&gt;&lt;font style=&quot;font-size: 12px;&quot;&gt;Quisque ac rutrum ex. Aenean sodales, tellus ac venenatis molestie, nisi&lt;br&gt; urna commodo urna, et semper nibh dolor et odio. Sed at ante eros. &lt;br&gt;Vivamus sodales cursus pharetra. Pellentesque ornare justo quis &lt;br&gt;efficitur sollicitudin. Morbi at lacus pretium, aliquam elit non, &lt;br&gt;consequat enim. Vivamus eget enim ac velit tincidunt porttitor vitae eu &lt;br&gt;libero. Donec nec felis lorem. Sed dui nunc, pellentesque in ligula &lt;br&gt;vitae, posuere lacinia est. Quisque venenatis purus ac nunc suscipit, in&lt;br&gt; tempor quam accumsan. Proin neque eros, bibendum sit amet lacus sed, &lt;br&gt;lobortis lacinia dui. Cras lobortis, ligula ut sodales dapibus, massa &lt;br&gt;dui elementum sem, vel hendrerit tellus quam eu est.&amp;nbsp;&lt;/font&gt;&lt;/p&gt;" style="text;html=1;strokeColor=none;fillColor=none;spacing=5;spacingTop=-20;whiteSpace=wrap;overflow=hidden;rounded=0;fontSize=24;" parent="1" vertex="1">
          <mxGeometry x="40" y="840" width="520" height="390" as="geometry" />
        </mxCell>
        <mxCell id="fnTpk-0xQx0vxIF9Zt7p-4" value="Footer" style="rounded=0;whiteSpace=wrap;html=1;fontSize=28;" parent="1" vertex="1">
          <mxGeometry x="40" y="1250" width="1030" height="60" as="geometry" />
        </mxCell>
        <mxCell id="fnTpk-0xQx0vxIF9Zt7p-5" value="" style="labelPosition=right;align=left;strokeWidth=1;shape=mxgraph.mockup.markup.curlyBrace;html=1;shadow=0;dashed=0;strokeColor=#999999;direction=north;fontSize=28;rotation=-180;" parent="1" vertex="1">
          <mxGeometry x="960" y="30" width="20" height="370" as="geometry" />
        </mxCell>
        <mxCell id="fnTpk-0xQx0vxIF9Zt7p-6" value="Intro" style="text;html=1;strokeColor=none;fillColor=none;align=center;verticalAlign=middle;whiteSpace=wrap;rounded=0;fontSize=28;" parent="1" vertex="1">
          <mxGeometry x="1000" y="200" width="60" height="30" as="geometry" />
        </mxCell>
        <mxCell id="fnTpk-0xQx0vxIF9Zt7p-7" value="" style="verticalLabelPosition=bottom;shadow=0;dashed=0;align=center;html=1;verticalAlign=top;strokeWidth=1;shape=mxgraph.mockup.graphics.simpleIcon;strokeColor=#999999;fontSize=28;" parent="1" vertex="1">
          <mxGeometry x="570" y="80" width="280" height="270" as="geometry" />
        </mxCell>
        <mxCell id="fnTpk-0xQx0vxIF9Zt7p-8" value="" style="labelPosition=right;align=left;strokeWidth=1;shape=mxgraph.mockup.markup.curlyBrace;html=1;shadow=0;dashed=0;strokeColor=#999999;direction=north;fontSize=28;rotation=-180;" parent="1" vertex="1">
          <mxGeometry x="530" y="440" width="20" height="790" as="geometry" />
        </mxCell>
        <mxCell id="fnTpk-0xQx0vxIF9Zt7p-9" value="Body" style="text;html=1;strokeColor=none;fillColor=none;align=center;verticalAlign=middle;whiteSpace=wrap;rounded=0;fontSize=28;" parent="1" vertex="1">
          <mxGeometry x="580" y="820" width="60" height="30" as="geometry" />
        </mxCell>
      </root>
    </mxGraphModel>
  </diagram>
</mxfile>
